[img]http://i.imgrz.com/qdkfL.jpg[/img]
[code]

Resident.Evil.Retribution.2012.720p.TS.NEW.SOURCE.XVID.AC3-26K
 
http://www.imdb.com/title/tt1855325/

Plot:
Alice fights alongside a resistance movement in the continuing battle against the Umbrella Corporation and the undead.

Sources - audio-matine....Thanks :P
          VIDEO-matine.....Thanks :P
Video
ID                                       : 0
Format                                   : MPEG-4 Visual
Format profile                           : Advanced Simple@L5
Format settings, BVOP                    : 2
Format settings, QPel                    : No
Format settings, GMC                     : No warppoints
Format settings, Matrix                  : Default (H.263)
Muxing mode                              : Packed bitstream
Codec ID                                 : XVID
Codec ID/Hint                            : XviD
Duration                                 : 1h 25mn
Bit rate                                 : 2 995 Kbps
Width                                    : 1 280 pixels
Height                                   : 532 pixels
Display aspect ratio                     : 2.40:1
Frame rate                               : 25.000 fps
Color space                              : YUV
Chroma subsampling                       : 4:2:0
Bit depth                                : 8 bits
Scan type                                : Progressive
Compression mode                         : Lossy
Bits/(Pixel*Frame)                       : 0.176
Stream size                              : 1.79 GiB (88%)
Writing library                          : XviD 64

Audio
ID                                       : 1
Format                                   : AC-3
Format/Info                              : Audio Coding 3
Codec ID                                 : 2000
Duration                                 : 1h 25mn
Bit rate mode                            : Constant
Bit rate                                 : 384 Kbps
Channel(s)                               : 2 channels
Sampling rate                            : 48.0 KHz
Compression mode                         : Lossy
Stream size                              : 235 MiB (11%)
Alignment                                : Aligned on interleaves
Interleave, duration                     : 5123560 ms (128 089.00 video frames)



Notes -
filtered the video, denised,resized an few other filters.. then muxed over matines line over our encode.. enjoy. included 2 samples one of the day and night scenes.

[/code]

Screens:
[IMG]http://i.imgur.com/r0DDw.png[/IMG]
[IMG]http://i.imgur.com/nL5Qt.png[/IMG]
[IMG]http://i.imgur.com/Cw3cx.png[/IMG]
[IMG]http://i.imgur.com/wOsFn.png[/IMG]
[IMG]http://i.imgur.com/iAFk7.png[/IMG]
[IMG]http://i.imgur.com/kGvwT.jpg[/IMG]
[IMG]http://imageshack.us/a/img825/4021/vlcsnap2012092115h29m44.png[/IMG]
[IMG]http://imageshack.us/a/img821/1549/vlcsnap2012092115h30m05.png[/IMG]
[IMG]http://imageshack.us/a/img109/522/vlcsnap2012092115h30m20.png[/IMG]
[IMG]http://imageshack.us/a/img703/5162/vlcsnap2012092115h31m00.png[/IMG]
[IMG]http://imageshack.us/a/img100/8996/vlcsnap2012092115h31m17.png[/IMG]

Greetz:
XtremeEncode|FYA|ILLUMANTI|CM8|RX|VISION|HDSCENE|xTriLL|DTRG|CRYS|REMIXHD|BIDA|RX|REFILL|INSPiRAL|AXED|HOPE|Anonymous|GooN|NOIR|Blackjesus|Gabroo Punjab Deh|UNiQUE|DQ1|RESiSTANCE|HS|LEGION

To all the people who have helped me  you know who you are

Anything to offer email us @: 26k@hushmail.me